<svg width="117" height="32" viewBox="0 0 117 32" fill="none" xmlns="http://www.w3.org/2000/svg">
<path fill-rule="evenodd" clip-rule="evenodd" d="M32.4552 8.01589C32.4609 8.10409 32.4638 8.19301 32.4652 8.28192C32.4654 8.29313 32.4656 8.30434 32.4658 8.31554C32.4672 8.38249 32.4685 8.44944 32.4666 8.5164C32.4654 8.58088 32.4616 8.64587 32.4579 8.71008C32.4572 8.72155 32.4565 8.733 32.4559 8.74442C32.4473 8.90145 32.4322 9.05849 32.4114 9.21337C32.4057 9.26141 32.3992 9.31017 32.3913 9.35821C32.3756 9.46003 32.3569 9.56042 32.3368 9.66081C32.334 9.67371 32.3325 9.68662 32.329 9.69953C32.3259 9.71574 32.3217 9.73174 32.3176 9.74787C32.314 9.7617 32.3104 9.77564 32.3074 9.78988C32.2687 9.95695 32.2228 10.1212 32.1698 10.2832C32.1631 10.304 32.1566 10.3248 32.15 10.3457C32.137 10.3875 32.1239 10.4292 32.1095 10.4704C32.0938 10.5134 32.0767 10.5558 32.0597 10.5982C32.0511 10.6194 32.0426 10.6405 32.0343 10.6618C31.9984 10.7507 31.9611 10.8389 31.9217 10.925C31.9167 10.9358 31.9117 10.9465 31.9068 10.9573C31.8897 10.9945 31.8726 11.0317 31.8543 11.0684C31.7905 11.1996 31.7209 11.3301 31.6478 11.4549C31.6463 11.457 31.6449 11.4592 31.6442 11.4613C31.5588 11.6054 31.4663 11.7431 31.3703 11.8779C31.3645 11.8844 31.3595 11.8915 31.3538 11.8987C31.2598 12.0271 31.163 12.149 31.0591 12.2673C31.0572 12.2694 31.0552 12.2717 31.0533 12.2739C31.0495 12.2784 31.0457 12.2828 31.0419 12.2866C30.8267 12.5304 30.5901 12.7527 30.3356 12.9485C30.3278 12.955 30.3191 12.9616 30.3103 12.9681C30.3038 12.9731 30.2972 12.978 30.2911 12.9829C30.1742 13.0711 30.0552 13.1528 29.9333 13.2296C29.9265 13.2336 29.9202 13.2379 29.914 13.2421C29.9071 13.2467 29.9003 13.2512 29.8931 13.2554C29.7605 13.3364 29.6228 13.4124 29.4816 13.4805C29.4624 13.4907 29.4428 13.4992 29.4235 13.5075L29.4163 13.5106C29.2994 13.5659 29.1804 13.6146 29.0592 13.6605C29.0505 13.6637 29.0418 13.667 29.033 13.6704C29.0046 13.6811 28.9756 13.6921 28.9466 13.7014C28.8032 13.7501 28.6569 13.7953 28.5078 13.8326L28.5035 13.8333L28.3952 13.8598C26.2369 14.379 23.9839 13.2912 22.7886 11.1516C21.8801 9.52313 20.6253 8.21595 19.1797 7.30387C22.8754 5.8124 26.594 9.06064 26.594 9.06064C26.8113 9.27288 27.0995 9.36753 27.3663 9.303L27.4731 9.2779C27.8983 9.17465 28.2052 8.73796 28.2152 8.26686V8.2518C28.2152 8.18655 28.2109 8.1213 28.2002 8.0582C28.198 8.03884 28.193 8.01805 28.1866 7.99654C28.1866 7.99561 28.1863 7.99494 28.186 7.99438C28.1856 7.99363 28.1851 7.99305 28.1851 7.99223C28.1593 7.89328 28.0998 7.75704 27.9822 7.58782L27.9794 7.58427C27.9539 7.55257 27.9294 7.5222 27.899 7.49317C27.2114 6.82846 26.4563 6.27705 25.6568 5.84467C25.6377 5.8336 25.6176 5.82358 25.5978 5.81372C25.5945 5.81208 25.5912 5.81045 25.588 5.80882C24.0478 4.9921 22.3512 4.58697 20.6446 4.70026L20.621 4.70241C20.3786 4.7189 20.137 4.74615 19.8953 4.78415C19.8732 4.78737 19.8518 4.78743 19.8306 4.78749C19.8139 4.78755 19.7973 4.7876 19.7806 4.78917C17.6302 5.1183 15.6547 6.21037 14.1202 7.96714C12.9722 9.27862 12.1677 10.8475 11.7425 12.5512L11.7432 12.5519C11.7145 12.6681 11.688 12.7871 11.6629 12.9033C11.658 12.9269 11.6527 12.9499 11.6475 12.9728C11.6427 12.9938 11.6379 13.0147 11.6335 13.036C11.6215 13.0962 11.6102 13.1564 11.5989 13.2167C11.5932 13.2468 11.5876 13.2769 11.5819 13.307C11.5668 13.3916 11.5517 13.4784 11.5395 13.563C11.5281 13.629 11.5188 13.6949 11.5101 13.7609C11.4929 13.8806 11.4779 14.0018 11.4643 14.123C11.4607 14.1617 11.4564 14.1997 11.4513 14.2392C11.4004 14.7612 11.3832 15.2918 11.4019 15.8267V15.8368V15.8547C11.4119 16.092 11.4284 16.3279 11.4506 16.5617L11.47 16.7431C11.4894 16.9087 11.513 17.0729 11.5381 17.2357C11.6751 18.0976 11.9074 18.9409 12.2372 19.7411L12.2236 19.7497C12.9306 21.5122 14.06 23.0223 15.464 24.1352C14.985 24.2334 14.4938 24.2893 13.9919 24.2893C11.8895 24.2893 9.92188 23.4124 8.41536 21.8141C7.74707 20.2065 7.32258 18.4511 7.19423 16.6047C7.18992 16.5416 7.1869 16.4785 7.18387 16.4154C7.18236 16.3839 7.18084 16.3523 7.17917 16.3208C7.17728 16.2873 7.17516 16.2538 7.17304 16.2203C7.16871 16.1518 7.16437 16.0832 7.16196 16.0139C7.1616 16.0078 7.1616 16.0017 7.1616 15.9955C7.1616 15.9893 7.1616 15.983 7.16124 15.9766C7.14475 15.4825 7.14977 14.9871 7.1763 14.4923C7.17826 14.458 7.18081 14.4243 7.18335 14.3909C7.18639 14.3508 7.1894 14.311 7.19136 14.2707C7.20283 14.1122 7.2143 13.9545 7.22936 13.7967C7.24083 13.6777 7.25374 13.5594 7.26737 13.4411C7.27835 13.3429 7.29131 13.2447 7.30436 13.1459L7.30609 13.1328C7.32616 12.9786 7.34911 12.8251 7.37349 12.6717C7.37779 12.6462 7.38227 12.621 7.38675 12.5957C7.39124 12.5704 7.39572 12.5451 7.40002 12.5197C7.89837 9.60631 9.14819 6.91594 11.0627 4.72536C13.7265 1.6779 17.3053 0 21.1437 0C23.5774 0 25.9221 0.695538 27.9865 1.97404C28.9022 2.49462 29.8695 3.15 30.6747 4.01117C30.8483 4.19546 31.0096 4.39193 31.1638 4.59485C31.1731 4.60704 31.1824 4.61923 31.1924 4.63071C31.2469 4.70313 31.3014 4.77555 31.3538 4.85012C31.5424 5.11758 31.7073 5.39938 31.85 5.69337C31.8581 5.70867 31.8656 5.72506 31.8728 5.74098C31.8757 5.74745 31.8786 5.75385 31.8815 5.76006C31.9425 5.89056 32.0005 6.0225 32.0507 6.15587C32.0532 6.16185 32.0558 6.16786 32.0583 6.17389C32.0689 6.19897 32.0796 6.22451 32.0895 6.25052C32.1411 6.39178 32.187 6.53519 32.2279 6.68075C32.2431 6.73297 32.2564 6.78614 32.2698 6.8395C32.2728 6.85135 32.2758 6.86321 32.2788 6.87507C32.306 6.98191 32.3304 7.08875 32.3498 7.19702C32.3532 7.21288 32.357 7.22844 32.3608 7.24399C32.3672 7.26993 32.3735 7.29588 32.3784 7.32323C32.3796 7.33125 32.3806 7.33949 32.3816 7.34796C32.3824 7.35464 32.3832 7.36145 32.3842 7.3684C32.4078 7.51324 32.4258 7.65952 32.4401 7.80652C32.4444 7.85311 32.4474 7.89938 32.4504 7.94555C32.4519 7.96902 32.4535 7.99246 32.4552 8.01589ZM28.2421 17.7445L28.2801 17.7524C30.1997 18.1561 31.7119 19.6956 32.2246 21.77C32.7309 23.8215 32.1551 26.0099 30.7224 27.4813C27.8291 30.4527 23.9599 31.795 20.1051 31.5642C24.0876 29.9996 27.7266 24.9981 28.0758 23.7899C28.1927 23.5189 28.1604 23.2528 28.121 23.0937C28.0736 22.9022 27.9087 22.4476 27.3838 22.3372L27.3458 22.3293H27.3444C27.3121 22.3222 27.2793 22.3195 27.2464 22.3168C27.2391 22.3162 27.2319 22.3156 27.2246 22.3149C27.2074 22.3149 27.1917 22.3142 27.1737 22.3142C26.8668 22.3192 26.5728 22.5186 26.3025 22.9101C26.2659 22.9624 26.2294 23.0176 26.1935 23.0772C25.7045 23.9828 25.1387 24.816 24.5171 25.5811C21.9113 28.8659 18.1145 30.8313 13.9922 30.8313C11.8332 30.8313 9.75589 30.3007 7.87793 29.2933C6.41659 28.5102 5.07642 27.4397 3.91193 26.1074C2.41402 24.3937 1.32052 22.3752 0.676606 20.1839C0.175388 18.4794 -0.0533505 16.6703 0.0104669 14.8175C0.283663 6.90196 6.12044 0.401907 13.3003 0.0197198C13.5441 0.0053788 13.7864 0.0025106 14.0288 0.0039447C12.4921 0.866555 11.0774 2.01383 9.84121 3.42857C8.64733 4.79527 7.68648 6.33693 6.96871 7.99474C5.36467 9.83756 4.34288 12.297 4.24966 14.9953C4.2174 15.9181 4.28982 16.8259 4.46191 17.7014C4.49561 17.8771 4.53361 18.0506 4.5752 18.2227C4.8276 19.2589 5.22198 20.2455 5.74614 21.1555C6.09607 21.7621 6.50407 22.335 6.96728 22.8642C8.82372 24.9888 11.3183 26.1576 13.9922 26.1576C16.4668 26.1576 18.7706 25.1365 20.5224 23.3912C20.5432 23.3708 20.563 23.3494 20.5827 23.328C20.6004 23.3089 20.6181 23.2898 20.6364 23.2715C20.8565 23.0442 21.0716 22.8104 21.2731 22.5609C21.2739 22.5593 21.2751 22.5584 21.2764 22.5574C21.2775 22.5566 21.2786 22.5557 21.2796 22.5544C21.8002 21.9234 22.2584 21.2544 22.6198 20.6456C22.6212 20.6442 22.6226 20.6413 22.6241 20.6399C23.6394 18.7096 25.5023 17.5781 27.439 17.6477C27.4555 17.6481 27.4722 17.6495 27.4885 17.6509C27.5 17.6519 27.5113 17.6528 27.5222 17.6534C27.6269 17.6591 27.7316 17.6656 27.8349 17.6778C27.9639 17.6928 28.0908 17.7143 28.2199 17.7409C28.2264 17.7423 28.2342 17.743 28.2421 17.7445Z" fill="white"/>
<path fill-rule="evenodd" clip-rule="evenodd" d="M73.3698 20.5983C75.1731 20.5818 76.9371 19.2947 77.1328 17.1149C77.1522 16.9019 77.1551 16.6667 77.1551 16.6653C77.1551 14.4424 77.1106 12.2196 77.1558 9.99816C77.173 9.14128 77.8943 8.38551 78.7878 8.36687L80.3294 8.36974C80.3409 8.37261 80.3517 8.37404 80.3631 8.37619C80.5123 8.43284 80.5259 8.45937 80.5367 8.6078V21.6825C80.7217 21.9714 80.5359 22.5035 80.5381 23.0198C80.5381 23.5784 80.4972 24.1398 80.3997 24.6912L80.3122 25.1057C79.821 27.0847 78.3626 28.891 75.9712 29.7177C74.9537 30.0684 73.8688 30.2333 72.7789 30.2362H72.7344C70.0176 30.2311 67.2784 29.2151 65.508 27.5522C65.4292 27.4777 65.3553 27.3149 65.4657 27.1801C66.0609 26.552 66.6073 25.8163 67.3989 25.6392C68.9549 25.2921 70.1265 26.9384 72.5932 27.0173C72.657 27.0195 72.7215 27.0202 72.7846 27.0202H72.8226C74.3822 27.0137 75.9748 26.4272 76.8123 24.9451C77.1049 24.4281 77.2031 23.8121 77.2096 23.2191V23.1058V23.103V21.7692C77.178 21.8037 77.1457 21.8374 77.1142 21.8703C75.9927 23.0291 74.3457 23.6486 72.69 23.6587H72.6463C70.5654 23.6558 68.4809 22.6863 67.4197 20.5997C66.8783 19.5356 66.6532 18.336 66.6345 17.15L66.6338 17.0575V8.6078C66.6474 8.42137 66.6983 8.37978 66.8747 8.36687C67.0059 8.36687 67.14 8.36615 67.2748 8.36615H67.3322C68.4071 8.36902 69.5027 8.43499 69.9043 9.35927C69.9896 9.55502 70.0369 9.76655 70.0405 9.98023C70.0878 12.2698 70.0276 14.5607 70.0419 16.8503C70.0613 18.3503 70.7303 19.9558 72.1952 20.4233C72.5695 20.5417 72.9582 20.599 73.3439 20.5983H73.3698ZM61.2789 2.00019C61.4251 2.00162 61.57 2.00234 61.717 2.00593C62.5244 2.03031 63.2715 2.68928 63.3246 3.55404C63.3275 3.59921 63.3282 3.65586 63.3282 3.65586C63.3217 8.12379 63.311 12.5903 63.311 17.0575C63.3217 19.1241 63.5139 21.3562 65.1732 22.7738C65.1732 22.7738 65.3395 22.9438 65.1861 23.1281C64.507 23.8021 63.8947 24.6511 63.0156 24.659H63.0048C62.9338 24.659 62.8614 24.6547 62.7861 24.6425C61.7249 24.4811 61.086 23.184 60.6242 22.0346C60.465 21.6409 60.3367 21.2336 60.2348 20.8213C59.9788 19.7895 59.8928 18.7175 59.92 17.6527V2.24614C59.9373 2.05182 59.9824 2.02098 60.1603 2.00593C60.5181 2.00593 60.8744 2.00019 61.2301 2.00019H61.2789ZM100.608 16.2451C100.634 13.1188 102.437 9.97665 105.757 8.80069C108.411 7.86207 111.59 8.41778 113.674 10.3423C115.147 11.7055 115.968 13.6487 116.053 15.7231C116.057 15.8199 116.059 15.9174 116.061 16.0149V17.2246C116.046 17.4153 115.998 17.4512 115.819 17.4648H103.93C104.291 19.0186 105.515 20.3316 107.138 20.7202C109.125 21.1956 111.379 20.5682 112.561 18.6859C112.561 18.6859 112.656 18.4895 112.876 18.5576L112.91 18.5734C113.75 19.0746 114.668 19.6396 114.693 20.5553C114.694 20.5997 114.693 20.6449 114.69 20.6908C114.605 21.9664 113.063 22.8341 111.87 23.3346C110.827 23.772 109.685 23.9311 108.545 23.9347V23.9319V23.8881C108.516 23.9161 108.465 23.9333 108.378 23.9333C105.062 23.8752 101.804 21.8123 100.88 18.3884C100.692 17.6914 100.603 16.9686 100.608 16.2451ZM43.1275 18.2923C43.1139 18.2457 43.1024 18.1983 43.0902 18.151C42.115 14.3241 44.3056 9.9788 48.2314 8.73042C49.2869 8.39484 50.4098 8.29732 51.5091 8.42209L51.5464 8.42567C52.8593 8.57912 54.1385 9.05237 55.2263 9.81603L55.237 9.82464L55.2643 9.844C55.3998 9.9408 55.5332 10.0419 55.6622 10.1473C55.688 10.1688 55.7131 10.1903 55.7382 10.2118C55.7626 10.2312 55.787 10.252 55.8114 10.2728C55.8573 10.3122 55.9024 10.3538 55.9483 10.394L55.9598 10.4054L55.9691 10.4133C55.9863 10.4291 56.0028 10.4449 56.02 10.4607C56.1089 10.5431 56.195 10.627 56.2796 10.7138C56.2911 10.7267 56.304 10.7396 56.3155 10.7532C56.39 10.8292 56.4617 10.9088 56.5334 10.9891C56.5564 11.0171 56.58 11.0436 56.6037 11.0716C56.6625 11.1411 56.7199 11.2114 56.7758 11.2824C56.7916 11.3039 56.8081 11.3254 56.8231 11.3469L56.8267 11.3519C56.9163 11.4782 56.9866 11.6158 57.0375 11.7592C57.0576 11.8137 57.0734 11.8682 57.0877 11.9242C57.1114 12.0202 57.1279 12.1178 57.1358 12.2153V12.2174C57.1888 12.8886 56.8654 13.5805 56.1799 13.8831L55.0197 14.3858C54.948 14.4109 54.8928 14.4166 54.8505 14.4059H54.8491L54.8434 14.4044C54.8304 14.3994 54.819 14.3951 54.8089 14.3894C54.8039 14.3858 54.8003 14.3836 54.796 14.38C54.7932 14.3779 54.7903 14.3765 54.7889 14.3743L54.7838 14.37L54.7795 14.3671C54.7767 14.3643 54.7752 14.3614 54.7731 14.3593C54.7673 14.3542 54.7623 14.3478 54.7573 14.342C54.7494 14.3327 54.743 14.3234 54.7358 14.3119L54.7344 14.3098L54.7315 14.3062C54.7222 14.2897 54.7114 14.2696 54.7007 14.2495C54.6878 14.2216 54.6741 14.1915 54.6584 14.1592V14.1585L54.6541 14.1492L54.6505 14.1377C54.6275 14.0882 54.6046 14.0395 54.5795 13.9921C54.573 13.9778 54.5651 13.9634 54.5573 13.9484C54.5386 13.9104 54.5192 13.8745 54.4992 13.838C54.4705 13.7885 54.4418 13.7397 54.4124 13.691C54.4024 13.6752 54.3923 13.6601 54.383 13.6451C54.3299 13.5605 54.2733 13.4794 54.2145 13.3991C54.1858 13.3611 54.1564 13.3231 54.1256 13.2837C54.1127 13.2679 54.0991 13.2507 54.0854 13.2342C54.0711 13.217 54.0553 13.1984 54.0403 13.1804C53.9592 13.0858 53.8739 12.9947 53.785 12.9058C53.7269 12.8491 53.6667 12.7925 53.6057 12.738L53.5957 12.7301L53.5892 12.7244C53.5713 12.7086 53.5534 12.6935 53.5355 12.6785C53.5161 12.6613 53.496 12.6448 53.4752 12.6276C53.4401 12.5989 53.405 12.5709 53.3677 12.543L53.3634 12.5387L53.3555 12.5329C53.3103 12.4992 53.2651 12.4662 53.2178 12.4333L53.2085 12.4254L53.1963 12.4168C53.169 12.3981 53.1418 12.3795 53.1138 12.3608L53.1002 12.3522C53.0579 12.3236 53.0149 12.2963 52.9697 12.2691C52.8923 12.2217 52.8141 12.1766 52.7338 12.1328L52.7151 12.1235L52.708 12.1199C52.6427 12.0855 52.5775 12.0525 52.5108 12.0217L52.4921 12.0124L52.4785 12.0066C51.2854 11.4559 49.8455 11.3964 48.5749 12.059C46.2509 13.2736 45.3475 16.7994 47.1824 19.0767C47.1932 19.0918 47.2053 19.1054 47.2161 19.119C47.2541 19.1642 47.2914 19.2094 47.3315 19.2524L47.3409 19.2632L47.3444 19.2682C47.3516 19.2746 47.3581 19.2832 47.366 19.2911L47.3789 19.3047C47.4025 19.3313 47.4276 19.3571 47.452 19.3822C47.5323 19.4654 47.6176 19.5471 47.7066 19.6253L47.7123 19.6303L47.7159 19.6339C47.7345 19.6504 47.7532 19.6661 47.7718 19.6826C47.7869 19.6955 47.8026 19.7077 47.8177 19.7213C47.9733 19.8497 48.1368 19.9659 48.3082 20.0706C48.3254 20.0813 48.3433 20.0913 48.3598 20.1021C48.3863 20.1179 48.4129 20.1337 48.4394 20.148C48.4544 20.1559 48.4695 20.1652 48.4846 20.1731C48.4975 20.1803 48.5111 20.1867 48.5233 20.1946C48.5878 20.2283 48.6523 20.2606 48.7183 20.2914C50.2349 21.0099 52.1616 20.8765 53.458 19.7378C54.008 19.2538 54.4432 18.6451 54.7394 17.9732C54.7394 17.9732 54.8003 17.7581 55.0348 17.7961L55.0699 17.8068L55.0936 17.8169C55.1223 17.8283 55.1517 17.8398 55.1811 17.8513C55.2019 17.8606 55.2241 17.8685 55.2456 17.8778C55.2585 17.8828 55.2714 17.8879 55.2836 17.8929C55.3912 17.9345 55.5009 17.9746 55.6092 18.0162L55.6629 18.0356L55.6694 18.0392L55.7225 18.0585L55.7425 18.0657L55.7511 18.0707L55.7626 18.0743L55.7813 18.0822L55.787 18.0843L55.8099 18.0936L55.8157 18.0951L55.8401 18.1044L55.8594 18.1123L55.8687 18.1166L55.8838 18.1223C55.9003 18.1295 55.9153 18.1352 55.9311 18.1417C55.9792 18.1618 56.0258 18.1811 56.0724 18.2034C56.1161 18.2213 56.1584 18.2414 56.2 18.2622C56.2287 18.2758 56.2581 18.2916 56.2868 18.3066C56.3721 18.3511 56.4538 18.3991 56.5313 18.4522C56.5428 18.4601 56.5542 18.4687 56.5657 18.4773C56.5786 18.4859 56.5915 18.4952 56.6037 18.5052L56.613 18.5117L56.6166 18.5146L56.6252 18.5203L56.6259 18.5217C56.6367 18.5289 56.6453 18.5368 56.6561 18.5447L56.6589 18.5475L56.6647 18.5526C56.6711 18.5576 56.6783 18.5626 56.6833 18.5676L56.6912 18.5734C56.7149 18.5941 56.7364 18.6149 56.7593 18.6357C56.7744 18.6508 56.7894 18.6644 56.8038 18.6802L56.8074 18.6845C56.9336 18.8164 57.0311 18.967 57.1006 19.1284L57.1049 19.1377L57.1064 19.1427C57.1343 19.2094 57.1587 19.2782 57.1773 19.3485L57.1817 19.3664C57.1867 19.3843 57.191 19.4023 57.1946 19.4202C57.2024 19.456 57.2082 19.4926 57.2146 19.5277V19.5306L57.2161 19.5428C57.2842 20.0125 57.1566 20.523 56.8468 20.9324C55.4249 22.8169 53.1569 23.9233 50.6845 23.9347V23.8874C50.6579 23.9154 50.6106 23.9347 50.5281 23.9333L50.493 23.9319C50.4514 23.9311 50.4106 23.9297 50.3697 23.929C50.2033 23.9218 50.037 23.9089 49.872 23.8917C49.7917 23.8831 49.7121 23.8738 49.6311 23.8616C49.5888 23.8551 49.5458 23.8501 49.5035 23.843L49.4834 23.8401L49.4683 23.8372L49.4454 23.8336L49.416 23.8286C49.3794 23.8222 49.3436 23.8164 49.307 23.81C49.2712 23.8028 49.2353 23.7956 49.1995 23.7892L49.1765 23.7842L49.1521 23.7799L49.1385 23.7763L49.1177 23.772C49.0912 23.7669 49.0661 23.7612 49.0403 23.7555C48.9901 23.7454 48.9413 23.734 48.8904 23.7211L48.8725 23.7175L48.8488 23.711C48.7513 23.6874 48.6531 23.6608 48.557 23.6336C48.4702 23.6092 48.3856 23.5827 48.3017 23.5561C48.2271 23.5318 48.1533 23.5074 48.0801 23.4808C47.898 23.4163 47.7195 23.3446 47.5409 23.2679C47.5144 23.2557 47.4879 23.2435 47.4613 23.232C47.2269 23.1259 46.996 23.009 46.7715 22.8807C46.7385 22.8613 46.7056 22.8419 46.6719 22.8226L46.6382 22.8032L46.6303 22.7982L46.6052 22.7824L46.5758 22.7659C46.4904 22.7136 46.4058 22.6598 46.3227 22.6046C46.3054 22.5938 46.289 22.5831 46.2725 22.5716C46.1341 22.4798 45.9978 22.3816 45.8652 22.2798C45.7662 22.2052 45.6694 22.1278 45.5748 22.0482C45.2851 21.8058 45.0126 21.5427 44.7602 21.2594L44.7358 21.2336L44.7165 21.2107C44.6785 21.1669 44.6405 21.1232 44.6017 21.078L44.5824 21.0536L44.5573 21.0249C44.4569 20.9016 44.3587 20.7754 44.264 20.6456L44.2626 20.6435C44.2174 20.5818 44.1729 20.518 44.1299 20.4549V20.4542L44.1249 20.4456C43.9793 20.2319 43.8452 20.0096 43.7219 19.7794L43.7183 19.773L43.7126 19.7622C43.6932 19.7242 43.6724 19.6862 43.6531 19.6475L43.6445 19.6303L43.6402 19.621C43.6194 19.5794 43.5979 19.5378 43.5778 19.494L43.5735 19.4869L43.5713 19.4819C43.5204 19.3743 43.4709 19.2646 43.4251 19.1527L43.4215 19.1463C43.4093 19.1169 43.3971 19.0868 43.3849 19.0566L43.3799 19.0437L43.3734 19.0265C43.2816 18.7964 43.2013 18.5583 43.1339 18.3159L43.1325 18.3102L43.1275 18.2923ZM95.0863 8.74834L95.092 2.15149C95.1394 1.97725 95.1695 1.96577 95.3294 1.95215H96.7821C97.5824 1.96434 98.3503 2.62546 98.412 3.47301C98.4156 3.50958 98.4156 3.54687 98.4156 3.58415L98.4134 23.44C98.3661 23.6135 98.3353 23.625 98.1754 23.6393H95.3294C95.1343 23.6221 95.1042 23.5769 95.0892 23.3984V21.932C95.0634 21.9593 95.0375 21.9858 95.011 22.0123C93.8057 23.2091 92.1077 23.9247 90.3653 23.9347L90.3638 23.6931L90.3631 23.924L90.3617 23.9347C87.064 23.9147 83.8752 21.694 83.0463 18.0126C82.8692 17.2275 82.8111 16.41 82.8707 15.5983C83.0678 12.8742 84.5808 10.2126 87.3092 9.01078C88.3188 8.56621 89.4345 8.34895 90.5323 8.36831C92.2181 8.40846 93.9068 9.07102 95.0849 10.2706L95.0863 8.74834ZM108.545 23.6931V23.787V23.8881C108.57 23.8666 108.578 23.8351 108.578 23.8064C108.578 23.7497 108.546 23.6945 108.545 23.6931ZM50.683 23.6931L50.6845 23.8874C50.7196 23.8501 50.716 23.7971 50.7074 23.7555L50.706 23.7548V23.7526C50.7053 23.7504 50.7038 23.7476 50.7031 23.7454L50.7024 23.7397C50.701 23.7354 50.6995 23.7318 50.6981 23.7282C50.6909 23.7074 50.6838 23.6938 50.683 23.6931ZM95.2477 15.9934C95.1975 14.17 94.1075 12.3623 92.1665 11.7047C90.4284 11.1175 88.3475 11.7004 87.198 13.1639C86.6395 13.876 86.3433 14.7472 86.2852 15.6428L86.2845 15.6636C86.1318 18.1618 87.8233 20.845 90.8012 20.7933C92.5766 20.7797 94.2768 19.6582 94.9572 17.8176C95.2778 16.9492 95.2254 17.1299 95.2477 16.2451C95.2505 16.1612 95.2505 16.0766 95.2477 15.9934ZM112.589 14.4933C112.156 12.7409 110.463 11.4265 108.438 11.3993H108.332C106.553 11.4244 104.821 12.5179 104.136 14.3134C104.107 14.3915 104.07 14.4976 104.065 14.5127V14.5134H112.595L112.589 14.4933Z" fill="white"/>
</svg>
